<?xml version="1.0" encoding="UTF-8"?>
<svg version="1.1" xmlns="http://www.w3.org/2000/svg" width="1105" height="945">
<path d="M0 0 C5.43569963 0.00879746 10.87139589 0.00570308 16.30710065 0.00419545 C25.68101572 0.00315669 35.05490252 0.00932629 44.42881048 0.02067113 C57.98119708 0.03706215 71.53357029 0.04214789 85.08596573 0.04464711 C107.08430666 0.04900312 129.08263259 0.06225478 151.0809654 0.08125234 C172.42536648 0.09966577 193.76976151 0.11381851 215.11416852 0.12226796 C216.10454572 0.12266254 216.10454572 0.12266254 217.11493054 0.12306509 C224.40480056 0.12596433 231.69467062 0.12874786 238.9845407 0.13148403 C293.76172842 0.15215118 348.5388999 0.18731892 403.31607282 0.23213124 C401.71496404 3.59882334 399.92732878 5.92433969 397.34024274 8.63015676 C396.50840971 9.50375844 395.67657667 10.37736012 394.81953657 11.27743459 C393.90444822 12.2277506 392.98935987 13.17806661 392.04654157 14.15718007 C391.07343774 15.17393903 390.1005687 16.19092272 389.12791669 17.20811391 C380.22256219 26.50395158 371.22737024 35.71367018 362.21032941 44.90106606 C356.15802684 51.07024057 350.13367819 57.26214449 344.17398298 63.5209496 C338.96461206 68.99176538 333.70832361 74.41205369 328.3914274 79.7785067 C325.58417258 82.61500804 322.80419609 85.46923022 320.07910383 88.38494229 C302.2800392 107.37420006 302.2800392 107.37420006 291.5270561 108.40226674 C285.96034971 108.42286426 280.60204074 107.72372992 275.13448942 106.72009778 C271.35450779 106.06565069 267.72397249 105.94483605 263.88955915 105.85908437 C261.47569343 105.74484636 259.0618743 105.62961944 256.64810407 105.51338124 C255.30222052 105.44978093 253.95632891 105.3863507 252.61043012 105.32307363 C247.07266544 105.06249769 241.5350138 104.79959105 235.99746931 104.53437734 C207.48869157 103.17094697 178.979187 102.18813226 150.44107282 101.66963124 C148.73541654 101.63836141 148.73541654 101.63836141 146.99530256 101.60645986 C57.64906147 100.00560196 -33.13936484 100.22513528 -258.68392718 180.23213124 C-259.48314593 180.90888906 -260.28236468 181.58564687 -261.10580218 182.28291249 C-266.09703686 186.59580824 -270.52461557 191.11565587 -274.68392718 196.23213124 C-275.82474749 197.61658437 -275.82474749 197.61658437 -276.98861468 199.02900624 C-291.58158718 217.11473243 -301.17879605 237.71020041 -306.68392718 260.23213124 C-306.84908831 260.88649159 -307.01424944 261.54085195 -307.18441546 262.2150414 C-313.28233199 287.71026014 -311.24156988 317.90555849 -305.68392718 343.23213124 C-305.44786761 344.31429921 -305.21180804 345.39646718 -304.96859515 346.51142812 C-299.28520204 371.73675251 -289.95126428 395.36841547 -278.88412249 418.67451406 C-277.0890329 422.49985143 -275.37911395 426.36167318 -273.68392718 430.23213124 C-276.62194045 428.81326913 -278.87863155 427.35689731 -281.30892718 425.16963124 C-282.01146624 424.54056874 -282.7140053 423.91150624 -283.43783343 423.26338124 C-284.17904437 422.59306874 -284.9202553 421.92275624 -285.68392718 421.23213124 C-286.41482562 420.58244374 -287.14572405 419.93275624 -287.89877093 419.26338124 C-314.82685606 395.24765141 -314.82685606 395.24765141 -325.85580218 382.33759999 C-327.99413588 379.87486096 -330.21477317 377.49725781 -332.43392718 375.10713124 C-338.2156371 368.75687194 -343.48791192 362.06562314 -348.68392718 355.23213124 C-349.3587514 354.35065419 -349.3587514 354.35065419 -350.04720843 353.45136952 C-372.81474966 323.58947557 -391.99915278 289.03717117 -396.68392718 251.23213124 C-396.79478655 250.35814687 -396.90564593 249.48416249 -397.01986468 248.58369374 C-401.16459687 210.38494574 -389.26892372 171.9539665 -365.49130023 141.89546132 C-364.23039725 140.33412307 -362.95775028 138.78293624 -361.68392718 137.23213124 C-361.27094378 136.71763417 -360.85796038 136.2031371 -360.43246233 135.67304921 C-349.59735973 122.17639874 -337.36576273 109.83851096 -323.68392718 99.23213124 C-322.7480678 98.45611562 -321.81220843 97.68009999 -320.84798968 96.88056874 C-302.72900065 81.95363036 -282.29637912 69.37169252 -261.68392718 58.23213124 C-260.79350726 57.74583241 -259.90308733 57.25953359 -258.98568499 56.75849843 C-177.39958996 12.37497059 -91.67020476 -0.18692284 0 0 Z " fill="#EC0000" transform="translate(484.6839271783829,136.76786875724792)"/>
<path d="M0 0 C3.92305381 1.61592454 6.71513166 4.31215679 9.75 7.1875 C10.74381594 8.11953109 11.73862703 9.05050206 12.734375 9.98046875 C13.22693283 10.44077988 13.71949066 10.901091 14.22697449 11.37535095 C16.03900871 13.03574425 17.88937674 14.64209298 19.7512207 16.24633789 C23.72807724 19.71976498 27.50995726 23.34882044 31.24609375 27.078125 C31.9015065 27.73020935 32.55691925 28.3822937 33.23219299 29.05413818 C34.60735046 30.42427239 35.98119255 31.79572798 37.35375977 33.16845703 C39.42379215 35.23630661 41.50169673 37.29601525 43.58007812 39.35546875 C50.15462687 45.90288595 56.48995934 52.44465158 62.21826172 59.75683594 C63.95171451 61.93920978 65.77791649 63.97143764 67.6875 66 C79.88087563 79.64496797 89.77055368 95.25983394 99 111 C99.39944824 111.6801416 99.79889648 112.3602832 100.21044922 113.06103516 C121.09724227 149.123026 130.24701747 192.41940205 119.7109375 233.17578125 C116.82591795 243.6311317 113.03400776 253.40376333 108 263 C107.50741699 263.957854 107.50741699 263.957854 107.00488281 264.93505859 C99.77683262 278.87290847 90.69377527 291.37426241 79.98828125 302.859375 C78.20992158 304.77399406 76.54300062 306.73995368 74.875 308.75 C65.21047599 319.79835886 53.73105654 329.24407983 42 338 C41.33162109 338.50354004 40.66324219 339.00708008 39.97460938 339.52587891 C23.30324696 352.03709756 5.63076983 362.89956322 -12.71777344 372.76855469 C-15.04094729 374.02209437 -17.35215728 375.29613202 -19.6640625 376.5703125 C-96.00990051 418.11974345 -178.38974889 430.60536722 -264.19422817 430.34819686 C-269.76140129 430.33496431 -275.32856749 430.33964468 -280.89575195 430.34190369 C-290.49004164 430.34345964 -300.08426906 430.33422893 -309.67854309 430.31719017 C-323.54941149 430.29257282 -337.42025048 430.28497197 -351.29113835 430.2812262 C-373.8080419 430.27469688 -396.3249129 430.25485874 -418.84179688 430.22631836 C-440.68554516 430.1986636 -462.52928454 430.17746284 -484.37304688 430.16479492 C-485.04907532 430.16440034 -485.72510377 430.16400576 -486.42161793 430.16359923 C-493.21198344 430.15964289 -500.00234902 430.15581557 -506.79271466 430.15208265 C-563.52849954 430.12088085 -620.26424808 430.06805476 -677 430 C-676.06514917 428.89849644 -675.12871246 427.79833874 -674.19163418 426.69872952 C-673.67033127 426.08593118 -673.14902837 425.47313285 -672.6119284 424.84176487 C-670.08175471 421.95082691 -667.37483374 419.25185212 -664.64672852 416.54907227 C-664.04262146 415.94642548 -663.4385144 415.34377869 -662.81610107 414.72286987 C-661.51593153 413.42647884 -660.21460902 412.13124327 -658.91223335 410.83706856 C-656.84490925 408.782621 -654.78082395 406.72496722 -652.71751404 404.66648865 C-647.59369253 399.55596886 -642.46443544 394.45091587 -637.33532715 389.34570312 C-632.99389936 385.02408613 -628.65457943 380.70037295 -624.317976 376.37391472 C-622.29555073 374.35791835 -620.27011102 372.34498546 -618.24452209 370.33216858 C-606.86350835 359.38939176 -606.86350835 359.38939176 -597.8270874 346.57048035 C-591.89487656 336.11665715 -583.608172 326.92140781 -572 323 C-550.17310159 319.3875019 -526.50427012 323.54959285 -504.68951416 325.77698326 C-489.98691722 327.2715087 -475.3379784 327.88638305 -460.5625 328.25 C-457.98273961 328.32500927 -455.40298712 328.40029083 -452.82324219 328.47583008 C-427.21974502 329.1857227 -401.60288997 329.21272113 -375.99134445 329.24497986 C-372.64242463 329.24988298 -369.29352312 329.25778232 -365.9446106 329.26623535 C-341.80749567 329.31858775 -317.71346015 329.03178194 -293.59375 328.0703125 C-292.55041063 328.02881325 -291.50707127 327.987314 -290.43211555 327.94455719 C-203.62401655 324.41356743 -108.16080648 315.02186462 -24 258 C-23.48179687 257.58041016 -22.96359375 257.16082031 -22.4296875 256.72851562 C11.57995724 229.12590111 31.4673435 193.03846577 36.3984375 149.48046875 C41.00868851 97.95779864 23.41480768 48.23486963 0.83520508 2.79638672 C0 1 0 1 0 0 Z " fill="#005AFE" transform="translate(893,378)"/>
<path d="M0 0 C48.49403948 -0.38431026 96.9877136 -0.68866238 145.48297396 -0.8681106 C151.20821566 -0.88937262 156.93345429 -0.91137609 162.65869141 -0.93383789 C163.79848314 -0.93829717 164.93827488 -0.94275645 166.11260577 -0.94735085 C184.56826122 -1.0213243 203.02301648 -1.15536068 221.4781379 -1.31159753 C240.41487781 -1.47057459 259.35114631 -1.56499877 278.28852618 -1.59950441 C289.97455783 -1.62283206 301.65804535 -1.69649779 313.34329374 -1.83457994 C321.3564272 -1.92444589 329.36824568 -1.95160294 337.38184647 -1.92952342 C342.00648827 -1.91863146 346.62668684 -1.93530554 351.25053787 -2.02649307 C378.28499675 -2.53374773 378.28499675 -2.53374773 384.42241144 1.65215993 C388.06060202 5.55833808 389.89630251 9.80681198 391.33902574 14.89206517 C392.36257592 18.15630283 394.03817422 20.83273711 395.80078125 23.7578125 C396.97331095 25.87912792 398.14386592 28.00153599 399.3125 30.125 C400.60868621 32.46913511 401.90539319 34.81297129 403.203125 37.15625 C403.84056641 38.30738281 404.47800781 39.45851563 405.13476562 40.64453125 C407.91857399 45.65247132 410.73721282 50.64037378 413.5625 55.625 C418.85023563 64.95485012 424.10024967 74.30529911 429.33227539 83.66650391 C429.88391357 84.65312012 430.43555176 85.63973633 431.00390625 86.65625 C431.51840332 87.58566406 432.03290039 88.51507813 432.56298828 89.47265625 C433.44490723 91.02373082 434.35869394 92.55782133 435.32373047 94.05859375 C437.11853708 96.86638706 437.99869538 98.66253834 438.01171875 102.03125 C436.79221617 105.60971317 434.98948767 108.45264039 432.8125 111.5 C431.89856569 112.82381489 430.98726674 114.1494517 430.078125 115.4765625 C429.58376953 116.19618164 429.08941406 116.91580078 428.58007812 117.65722656 C425.6485879 122.00373153 422.86372894 126.44389559 420.0625 130.875 C415.94417941 137.37235313 411.81451993 143.86079801 407.625 150.3125 C402.20193802 158.66446874 396.83888641 167.05464834 391.48095703 175.44848633 C388.36308654 180.32858122 385.24102244 185.20063429 382 190 C379.15242203 187.462565 377.45422623 184.60104225 375.55078125 181.3125 C375.22130493 180.74665695 374.89182861 180.1808139 374.55236816 179.5978241 C373.4682721 177.73425362 372.39050675 175.86709833 371.3125 174 C370.16392388 172.02284029 369.01361615 170.04669484 367.86320496 168.07060242 C367.07510032 166.71666543 366.28751834 165.3624241 365.5004425 164.00788879 C361.64534554 157.37661726 357.732658 150.78049299 353.8125 144.1875 C347.70495264 133.9005559 341.65682131 123.58048553 335.63671875 113.2421875 C331.91619945 106.85329244 328.18732997 100.46932284 324.45162964 94.08929443 C323.42927043 92.34271462 322.40808371 90.59544865 321.38696289 88.84814453 C320.07104249 86.60146692 318.72663489 84.37121232 317.3531456 82.1592598 C315.57574209 79.18320728 314.24303337 76.2025324 312.97121048 72.98020554 C310.14998838 66.44602402 307.12094121 59.6942224 300.20418835 56.85057163 C292.23515129 55.11608425 284.10024097 55.38275297 275.99068666 55.59414458 C272.28104638 55.66868284 268.57241547 55.62665217 264.86238098 55.59928894 C258.4457285 55.5676796 252.03290849 55.6087469 245.61687469 55.70020294 C236.34129123 55.83231323 227.06802949 55.85323673 217.79162791 55.8476555 C202.73994865 55.84159079 187.69014345 55.92454175 172.63916016 56.06396484 C158.02485715 56.19915106 143.41128378 56.29210724 128.79638672 56.32861328 C127.89447974 56.33088076 126.99257276 56.33314823 126.06333527 56.33548442 C121.53841072 56.34660108 117.01348474 56.35689112 112.48855734 56.36677027 C74.99086846 56.44970609 37.49666073 56.69379119 0 57 C0 38.19 0 19.38 0 0 Z " fill="#005AFE" transform="translate(265,320)"/>
<path d="M0 0 C2.24718984 0.03362239 4.49451271 0.05922113 6.74188232 0.07717896 C12.62440862 0.14553508 18.49878327 0.32194758 24.37811279 0.52185059 C30.39027603 0.70684022 36.40377288 0.78837186 42.41796875 0.87890625 C54.19366379 1.07128087 65.96333877 1.37797508 77.734375 1.7578125 C75.52621325 5.64684626 73.35724949 9.45863341 70.7734375 13.11328125 C70.22703613 13.88969971 69.68063477 14.66611816 69.11767578 15.46606445 C68.53743652 16.28421631 67.95719727 17.10236816 67.359375 17.9453125 C66.0988912 19.7343277 64.83847641 21.52339153 63.578125 23.3125 C62.93746094 24.21967773 62.29679688 25.12685547 61.63671875 26.06152344 C58.70019626 30.22360691 55.77950841 34.39672165 52.859375 38.5703125 C52.00206787 39.79463989 52.00206787 39.79463989 51.12744141 41.04370117 C46.65063339 47.43976211 42.19055782 53.84736995 37.734375 60.2578125 C30.99365321 69.95467896 24.2295611 79.63490433 17.45214844 89.30615234 C15.71484869 91.78568107 13.9783612 94.26577645 12.2421875 96.74609375 C11.66259277 97.57407471 11.08299805 98.40205566 10.48583984 99.25512695 C9.32700389 100.91099917 8.1684705 102.56708318 7.01025391 104.22338867 C3.95257701 108.59489087 0.88764389 112.96107594 -2.1875 117.3203125 C-2.82816406 118.23039062 -3.46882812 119.14046875 -4.12890625 120.078125 C-5.35847508 121.82446914 -6.59014448 123.56933677 -7.82421875 125.3125 C-8.65373047 126.49199219 -8.65373047 126.49199219 -9.5 127.6953125 C-9.98694336 128.38496094 -10.47388672 129.07460938 -10.97558594 129.78515625 C-13.22020625 133.21750526 -14.50487358 135.84866801 -14.61329651 139.9881134 C-14.63984314 140.82491135 -14.66638977 141.66170929 -14.69374084 142.52386475 C-14.71303146 143.43356018 -14.73232208 144.34325562 -14.75219727 145.28051758 C-14.78014374 146.24521469 -14.80809021 147.2099118 -14.83688354 148.20384216 C-14.92727418 151.39483587 -15.00452757 154.58601328 -15.08203125 157.77734375 C-15.14310384 159.99690802 -15.20512371 162.21644641 -15.26805115 164.43595886 C-15.43183057 170.28399462 -15.58503232 176.13225636 -15.73535156 181.98065186 C-15.97701119 191.33113062 -16.23271505 200.68122308 -16.49207878 210.0312252 C-16.58079333 213.2943106 -16.66385064 216.55750432 -16.74623108 219.820755 C-16.80013699 221.82948241 -16.8542007 223.83820559 -16.90844727 225.84692383 C-16.92976212 226.75054657 -16.95107697 227.65416931 -16.97303772 228.58517456 C-17.00862793 229.85306068 -17.00862793 229.85306068 -17.04493713 231.14656067 C-17.06354074 231.87234723 -17.08214434 232.59813379 -17.10131168 233.34591389 C-17.31617492 236.49981738 -17.81856184 239.62837038 -18.265625 242.7578125 C-47.965625 242.7578125 -77.665625 242.7578125 -108.265625 242.7578125 C-108.90824369 214.73249722 -108.90824369 214.73249722 -109.06968689 200.71458435 C-109.15776936 193.184347 -109.26887832 185.65699776 -109.47265625 178.12890625 C-109.65159057 171.51534517 -109.74258284 164.90406337 -109.78366089 158.28797913 C-109.81287036 155.78417435 -109.8699006 153.28051009 -109.95730591 150.77806091 C-110.59828517 131.63763163 -106.0757528 120.1884959 -94.18510437 105.18798828 C-91.57709967 101.88609822 -89.17571877 98.45473489 -86.765625 95.0078125 C-85.98207798 93.92201399 -85.19696785 92.83734145 -84.41015625 91.75390625 C-81.67956646 87.93903855 -79.09305809 84.03920717 -76.5078125 80.125 C-73.74186029 75.95185367 -70.90817979 71.8251332 -68.078125 67.6953125 C-67.52278076 66.88489502 -66.96743652 66.07447754 -66.39526367 65.23950195 C-65.25408613 63.57474647 -64.11272704 61.91011542 -62.97119141 60.24560547 C-59.69163397 55.46193953 -56.41813354 50.67412731 -53.14404297 45.88671875 C-50.42608991 41.91313184 -47.70576455 37.94121143 -44.98046875 33.97265625 C-44.43132813 33.17214844 -43.8821875 32.37164062 -43.31640625 31.546875 C-42.30564473 30.07356159 -41.29405651 28.60081461 -40.28125 27.12890625 C-39.80042969 26.42765625 -39.31960938 25.72640625 -38.82421875 25.00390625 C-38.30534592 24.28459427 -37.78647308 23.56528229 -37.25187683 22.82417297 C-35.6494589 20.35037236 -34.38933678 18.00792796 -33.11103821 15.36979675 C-25.05406103 -0.15798422 -16.51996993 -0.72927318 0 0 Z " fill="#005AFE" transform="translate(766.265625,383.2421875)"/>
<path d="M0 0 C96.03 0 192.06 0 291 0 C291 19.8 291 39.6 291 60 C194.97 60 98.94 60 0 60 C0 40.2 0 20.4 0 0 Z " fill="#005AFE" transform="translate(237,568)"/>
<path d="M0 0 C2.45618035 0.0223913 4.91241443 0.03946822 7.3686676 0.05145264 C13.82275284 0.09719579 20.27357895 0.21499902 26.72637939 0.34790039 C33.31518459 0.47082624 39.9045184 0.52549886 46.49414062 0.5859375 C59.41545025 0.71449996 72.33450466 0.91689039 85.25390625 1.171875 C83.97299695 3.74268495 82.69112319 6.3130063 81.40869141 8.88305664 C80.86747398 9.96966457 80.86747398 9.96966457 80.31532288 11.07822418 C77.86431144 15.98767754 75.33505345 20.83508534 72.62890625 25.609375 C72.2306665 26.31892334 71.83242676 27.02847168 71.42211914 27.75952148 C70.53780717 29.33490504 69.65208736 30.90949896 68.76513672 32.48339844 C67.01520041 35.5965323 65.2768345 38.71599764 63.5390625 41.8359375 C62.25661787 44.1354766 60.9740664 46.43495611 59.69140625 48.734375 C59.07120605 49.84804443 58.45100586 50.96171387 57.81201172 52.10913086 C57.23467285 53.14175049 56.65733398 54.17437012 56.0625 55.23828125 C55.54486084 56.16584229 55.02722168 57.09340332 54.49389648 58.04907227 C53.25390625 60.171875 53.25390625 60.171875 52.25390625 61.171875 C50.82444154 61.26741899 49.3902796 61.29375938 47.95762634 61.29212952 C47.03069473 61.29350418 46.10376312 61.29487885 45.14874268 61.29629517 C44.12375671 61.29269989 43.09877075 61.28910461 42.04272461 61.28540039 C40.43316643 61.28561943 40.43316643 61.28561943 38.79109192 61.2858429 C35.22529109 61.28514324 31.65954176 61.27734838 28.09375 61.26953125 C25.62895232 61.26766726 23.16415426 61.26624327 20.69935608 61.26524353 C14.1973672 61.26141687 7.6954005 61.25158532 1.19342041 61.24053955 C-5.43550192 61.22979248 -12.06443068 61.22574659 -18.69335938 61.22070312 C-31.71094699 61.20996319 -44.72851919 61.19307597 -57.74609375 61.171875 C-56.94589684 56.46633657 -55.09478871 53.01135418 -52.62109375 48.984375 C-51.71474544 47.47740386 -50.80989936 45.9695286 -49.90625 44.4609375 C-49.40625488 43.62852539 -48.90625977 42.79611328 -48.39111328 41.93847656 C-45.22378707 36.61165248 -42.14757833 31.23187279 -39.05859375 25.859375 C-37.82583829 23.71726519 -36.59277246 21.57533397 -35.359375 19.43359375 C-34.83126221 18.51537842 -34.30314941 17.59716309 -33.7590332 16.65112305 C-33.43883713 16.14996979 -33.11864105 15.64881653 -32.78874207 15.13247681 C-31.60624287 13.06160986 -31.60624287 13.06160986 -30.83198547 10.15048218 C-25.64725224 -3.36050402 -12.20992859 -0.32548891 0 0 Z " fill="#ED0000" transform="translate(807.74609375,314.828125)"/>
<path d="M0 0 C2.4671428 0.02802824 4.93436994 0.04935589 7.40162659 0.0643158 C13.84990935 0.12119287 20.29300464 0.26816204 26.73925781 0.43487549 C33.33522373 0.58920104 39.93204034 0.65701416 46.52929688 0.73242188 C59.4396947 0.89258714 72.34652279 1.14514278 85.25390625 1.46484375 C84.29713407 2.58764214 83.33942969 3.70964622 82.3813324 4.83131409 C81.84811088 5.45621514 81.31488935 6.0811162 80.76550961 6.72495365 C79.05767709 8.69070801 77.27327302 10.54426901 75.4140625 12.3671875 C74.40762695 13.36202148 74.40762695 13.36202148 73.38085938 14.37695312 C72.00850049 15.72334495 70.63610487 17.06969934 69.26367188 18.41601562 C68.25530273 19.4127832 68.25530273 19.4127832 67.2265625 20.4296875 C66.63109619 21.01355225 66.03562988 21.59741699 65.42211914 22.19897461 C61.00813882 26.81176048 56.87943069 31.64456186 52.97119141 36.69116211 C47.81314198 42.97319001 42.86689886 48.4057893 34.58105469 49.86376953 C27.92439161 50.50891732 21.3013437 50.26934481 14.62890625 50.02734375 C12.18562284 49.99744099 9.74224242 49.97469431 7.29882812 49.95874023 C0.91759743 49.89811559 -5.45765413 49.74139715 -11.83654785 49.56347656 C-18.3654696 49.39876027 -24.89537347 49.32650762 -31.42578125 49.24609375 C-44.20174615 49.07533103 -56.9735997 48.80600734 -69.74609375 48.46484375 C-68.0930864 44.95400219 -66.20869657 42.70734942 -63.421875 39.98046875 C-62.55755859 39.12710938 -61.69324219 38.27375 -60.80273438 37.39453125 C-59.89716797 36.51023437 -58.99160156 35.6259375 -58.05859375 34.71484375 C-51.07959401 27.94553041 -51.07959401 27.94553041 -44.5390625 20.76171875 C-44.00807953 20.17381058 -43.47709656 19.5859024 -42.93002319 18.98017883 C-41.73003727 17.59809815 -40.54630446 16.19862092 -39.4476757 14.73467827 C-28.27716873 -0.06984119 -17.72215709 -0.59562685 0 0 Z " fill="#005AFE" transform="translate(402.74609375,444.53515625)"/>
<path d="M0 0 C6.47494413 0.24816217 12.95218602 0.35567356 19.43054199 0.47607422 C32.07957991 0.73137975 44.71916138 1.13461376 57.36022949 1.64794922 C55.97889516 4.51792643 54.67240662 6.57924322 52.39855957 8.82080078 C51.80066116 9.41532043 51.20276276 10.00984009 50.58674622 10.62237549 C49.61803841 11.57089386 49.61803841 11.57089386 48.62976074 12.53857422 C47.96111496 13.20201843 47.29246918 13.86546265 46.6035614 14.54901123 C44.46464867 16.67013328 42.31919329 18.7844709 40.17272949 20.89794922 C38.0449419 22.99794629 35.9186912 25.09944054 33.79545593 27.20404053 C32.4759554 28.51147466 31.15379344 29.81623065 29.82844543 31.11773682 C26.04580702 34.86011821 22.4753809 38.71926301 19.0221405 42.76824951 C18.19949455 43.69870087 18.19949455 43.69870087 17.36022949 44.64794922 C16.85194107 45.37667236 16.34365265 46.10539551 15.81996155 46.85620117 C11.79922168 49.78503758 7.55923678 49.17008979 2.7166748 49.10205078 C1.63344437 49.10263489 0.55021393 49.10321899 -0.56584167 49.1038208 C-4.14810168 49.10103296 -7.72953077 49.06990648 -11.31164551 49.03857422 C-13.79457138 49.03111436 -16.27750315 49.02542022 -18.76043701 49.02142334 C-24.62887386 49.00770871 -30.4970037 48.97618011 -36.36531472 48.93602538 C-43.70284557 48.88690848 -51.04039401 48.8654413 -58.37805176 48.84326172 C-71.46544294 48.80035579 -84.55258784 48.7328483 -97.63977051 48.64794922 C-96.70335828 47.55035089 -95.76619798 46.45339077 -94.82873535 45.35668945 C-94.30693695 44.74574936 -93.78513855 44.13480927 -93.24752808 43.50535583 C-90.07043646 39.83493244 -86.80225995 36.24625705 -83.36743164 32.81518555 C-79.23310201 28.64144405 -75.77962148 24.46748824 -72.53381348 19.56567383 C-54.45242855 -5.32289951 -28.11886448 -1.19307895 0 0 Z " fill="#005AFE" transform="translate(489.6397705078125,389.35205078125)"/>
<path d="M0 0 C1.08323044 -0.00073013 2.16646088 -0.00146027 3.28251648 -0.00221252 C6.86495947 0.00127245 10.4461043 0.04017927 14.02832031 0.0793457 C16.51124359 0.08867052 18.99417606 0.09578819 21.47711182 0.1007843 C27.34562982 0.11792783 33.21366812 0.15733825 39.08198953 0.20753175 C46.41949329 0.26892765 53.75702452 0.29576168 61.09472656 0.32348633 C74.18220302 0.37711909 87.26929465 0.46150337 100.35644531 0.56762695 C99.95250549 1.09305588 99.54856567 1.6184848 99.13238525 2.15983582 C96.44878107 5.68656285 93.87578849 9.10525984 91.84082031 13.0559082 C83.67862047 27.87761345 72.07713488 42.44542277 55.35644531 47.56762695 C20.33524943 54.94735903 -19.21434303 49.94342481 -54.64355469 47.56762695 C-53.11632845 44.36172298 -51.52684147 42.21102454 -48.99169922 39.70458984 C-48.24397247 38.96024185 -47.49624573 38.21589386 -46.7258606 37.44898987 C-45.91752777 36.65411667 -45.10919495 35.85924347 -44.27636719 35.0402832 C-43.44523407 34.21435165 -42.61410095 33.3884201 -41.75778198 32.53746033 C-39.09940309 29.89689665 -36.43444958 27.26310066 -33.76855469 24.63012695 C-31.11065479 21.99988846 -28.45423684 19.36819668 -25.80075073 16.73350525 C-24.14965125 15.09461152 -22.49588548 13.45839846 -20.83914185 11.82521057 C-20.08511078 11.07771042 -19.33107971 10.33021027 -18.55419922 9.56005859 C-17.89404816 8.90816055 -17.23389709 8.25626251 -16.55374146 7.58460999 C-14.51654062 5.58782522 -14.51654062 5.58782522 -13.06436157 2.85357666 C-9.19436989 -0.80082733 -5.12877321 -0.09007542 0 0 Z " fill="#005AFE" transform="translate(321.6435546875,503.432373046875)"/>
<path d="M0 0 C7.26 0 14.52 0 22 0 C22 19.8 22 39.6 22 60 C14.74 60 7.48 60 0 60 C0 40.2 0 20.4 0 0 Z " fill="#EC0000" transform="translate(536,568)"/>
</svg>
